<svg width="50" height="50" viewBox="0 0 50 50" fill="none" xmlns="http://www.w3.org/2000/svg">
<path opacity="0.3" fill-rule="evenodd" clip-rule="evenodd" d="M22.0542 4.37502C22.7917 3.63851 23.7784 3.20514 24.8197 3.1604C25.861 3.11566 26.8813 3.46281 27.6792 4.13336L27.9459 4.37711L31.9042 8.33336H37.5001C38.5509 8.33355 39.5629 8.7308 40.3332 9.44552C41.1036 10.1602 41.5754 11.1396 41.6542 12.1875L41.6667 12.5V18.0959L45.6251 22.0542C46.3622 22.7918 46.7959 23.7789 46.8406 24.8207C46.8854 25.8625 46.5379 26.8832 45.8667 27.6813L45.623 27.9459L41.6646 31.9042V37.5C41.665 38.5512 41.268 39.5637 40.5532 40.3345C39.8384 41.1053 38.8587 41.5774 37.8105 41.6563L37.5001 41.6667H31.9063L27.948 45.625C27.2104 46.3621 26.2232 46.7959 25.1814 46.8406C24.1397 46.8853 23.119 46.5378 22.3209 45.8667L22.0563 45.625L18.098 41.6667H12.5001C11.4489 41.667 10.4364 41.27 9.66558 40.5552C8.89479 39.8405 8.42265 38.8608 8.34381 37.8125L8.33339 37.5V31.9042L4.37506 27.9459C3.63796 27.2083 3.20422 26.2211 3.15948 25.1793C3.11474 24.1375 3.46225 23.1168 4.13339 22.3188L4.37506 22.0542L8.33339 18.0959V12.5C8.33359 11.4492 8.73083 10.4372 9.44555 9.66687C10.1603 8.89652 11.1397 8.42467 12.1876 8.34586L12.5001 8.33336H18.0959L22.0542 4.37502Z" fill="#00BBA7"/>
<path fill-rule="evenodd" clip-rule="evenodd" d="M31.4146 18.7146L22.5729 27.5562L18.8896 23.8729C18.4986 23.4823 17.9686 23.2629 17.4159 23.2631C16.8633 23.2633 16.3333 23.483 15.9427 23.874C15.552 24.2649 15.3327 24.795 15.3329 25.3476C15.3331 25.9003 15.5528 26.4302 15.9437 26.8208L20.9521 31.8292C21.1649 32.0421 21.4176 32.211 21.6957 32.3262C21.9738 32.4414 22.2719 32.5008 22.5729 32.5008C22.8739 32.5008 23.172 32.4414 23.4501 32.3262C23.7282 32.211 23.9809 32.0421 24.1937 31.8292L34.3604 21.6604C34.7399 21.2675 34.9499 20.7412 34.9451 20.195C34.9404 19.6487 34.7213 19.1262 34.335 18.74C33.9487 18.3537 33.4262 18.1346 32.88 18.1298C32.3337 18.1251 31.8075 18.3351 31.4146 18.7146Z" fill="#00BBA7"/>
</svg>
