<svg width="50" height="50" viewBox="0 0 50 50" fill="none" xmlns="http://www.w3.org/2000/svg">
<path opacity="0.3" fill-rule="evenodd" clip-rule="evenodd" d="M10.4167 6.25C9.3116 6.25 8.25179 6.68899 7.47039 7.47039C6.68899 8.25179 6.25 9.3116 6.25 10.4167V39.5833C6.25 40.6884 6.68899 41.7482 7.47039 42.5296C8.25179 43.311 9.3116 43.75 10.4167 43.75H18.75C19.8551 43.75 20.9149 43.311 21.6963 42.5296C22.4777 41.7482 22.9167 40.6884 22.9167 39.5833V10.4167C22.9167 9.3116 22.4777 8.25179 21.6963 7.47039C20.9149 6.68899 19.8551 6.25 18.75 6.25H10.4167Z" fill="#FE9A00"/>
<path fill-rule="evenodd" clip-rule="evenodd" d="M31.25 14.5833C30.145 14.5833 29.0852 15.0223 28.3038 15.8037C27.5224 16.5851 27.0834 17.6449 27.0834 18.75V39.5833C27.0834 40.6884 27.5224 41.7482 28.3038 42.5296C29.0852 43.311 30.145 43.75 31.25 43.75H39.5834C40.6884 43.75 41.7482 43.311 42.5297 42.5296C43.3111 41.7482 43.75 40.6884 43.75 39.5833V18.75C43.75 17.6449 43.3111 16.5851 42.5297 15.8037C41.7482 15.0223 40.6884 14.5833 39.5834 14.5833H31.25Z" fill="#FE9A00"/>
</svg>
