<svg width="50" height="50" viewBox="0 0 50 50" fill="none" xmlns="http://www.w3.org/2000/svg">
<path opacity="0.3" d="M25.4584 41.3542C25.0834 41.7292 24.4167 41.7917 23.9792 41.3542C23.784 41.1575 23.6745 40.8917 23.6745 40.6146C23.6745 40.3375 23.784 40.0717 23.9792 39.875L31.0417 32.8125L28.1042 29.875L21.0417 36.9375C20.6459 37.3542 19.9792 37.3334 19.5625 36.9375C19.3674 36.7408 19.2579 36.475 19.2579 36.1979C19.2579 35.9209 19.3674 35.655 19.5625 35.4584L26.625 28.3959L23.6875 25.4584L16.625 32.5209C16.25 32.8959 15.5834 32.9584 15.1459 32.5209C14.9551 32.3219 14.8486 32.0569 14.8486 31.7813C14.8486 31.5056 14.9551 31.2407 15.1459 31.0417L22.2084 23.9792L19.25 21.0417L12.1875 28.1042C11.8125 28.4792 11.1459 28.5417 10.7084 28.1042C10.5176 27.9052 10.4111 27.6402 10.4111 27.3646C10.4111 27.089 10.5176 26.824 10.7084 26.625L19.8334 17.5L23.7292 21.375C25.7084 23.3542 29.125 23.3334 31.1042 21.375C33.1459 19.3334 33.1459 16.0417 31.1042 14L27.2292 10.125L27.8125 9.54169C29.4375 7.91669 32.0834 7.91669 33.7084 9.54169L42.5417 18.375C44.1667 20 44.1667 22.6459 42.5417 24.2709L25.4584 41.3542Z" fill="#AD46FF"/>
<path d="M25.4583 41.3541C25.0833 41.7291 24.4166 41.7916 23.9791 41.3541C23.784 41.1575 23.6744 40.8916 23.6744 40.6146C23.6744 40.3375 23.784 40.0717 23.9791 39.875L31.0416 32.8125L28.1041 29.875L21.0416 36.9375C20.6458 37.3541 19.9791 37.3333 19.5624 36.9375C19.3673 36.7408 19.2578 36.475 19.2578 36.1979C19.2578 35.9208 19.3673 35.655 19.5624 35.4583L26.6249 28.3958L23.6874 25.4583L16.6249 32.5208C16.2499 32.8958 15.5833 32.9583 15.1458 32.5208C14.955 32.3218 14.8485 32.0569 14.8485 31.7812C14.8485 31.5056 14.955 31.2406 15.1458 31.0416L22.2083 23.9791L19.2499 21.0416L12.1874 28.1041C11.8124 28.4791 11.1458 28.5416 10.7083 28.1041C10.5175 27.9052 10.411 27.6402 10.411 27.3646C10.411 27.0889 10.5175 26.824 10.7083 26.625L19.8333 17.5L23.7291 21.375C25.7083 23.3541 29.1249 23.3333 31.1041 21.375C33.1458 19.3333 33.1458 16.0416 31.1041 14L27.2291 10.125L27.8124 9.54165C29.4374 7.91665 32.0833 7.91665 33.7083 9.54165L42.5416 18.375C44.1666 20 44.1666 22.6458 42.5416 24.2708L25.4583 41.3541ZM45.4791 27.2291C47.0388 25.6634 47.9146 23.5434 47.9146 21.3333C47.9146 19.1233 47.0388 17.0032 45.4791 15.4375L36.6458 6.60415C35.08 5.04443 32.96 4.1687 30.7499 4.1687C28.5399 4.1687 26.4199 5.04443 24.8541 6.60415L24.2708 7.18748L23.6874 6.60415C22.1217 5.04443 20.0017 4.1687 17.7916 4.1687C15.5816 4.1687 13.4615 5.04443 11.8958 6.60415L4.52078 13.9791C3.11063 15.3833 2.25099 17.2467 2.09808 19.2308C1.94516 21.2149 2.50911 23.188 3.68744 24.7916L6.70828 21.7708C6.30555 20.9845 6.16319 20.0905 6.30174 19.218C6.4403 18.3454 6.8526 17.5395 7.47911 16.9166L14.8541 9.54165C16.4791 7.91665 19.1249 7.91665 20.7499 9.54165L28.1666 16.9583C28.5416 17.3333 28.6041 18 28.1666 18.4375C27.7291 18.875 27.0624 18.8125 26.6874 18.4375L19.8333 11.6041L7.74994 23.6666C5.70828 25.6875 5.70828 29 7.74994 31.0416C8.56244 31.8541 9.60411 32.3541 10.7083 32.5C10.8548 33.62 11.3673 34.6602 12.166 35.4589C12.9647 36.2576 14.0049 36.7701 15.1249 36.9166C15.2715 38.0366 15.784 39.0769 16.5827 39.8756C17.3814 40.6743 18.4216 41.1867 19.5416 41.3333C19.6874 42.4583 20.1874 43.4791 20.9999 44.2916C21.9791 45.2708 23.2916 45.8125 24.6874 45.8125C26.0833 45.8125 27.3958 45.2708 28.3749 44.2916L45.4791 27.2291Z" fill="#AD46FF"/>
</svg>
